<?xml version="1.0" standalone="no"?><!DOCTYPE svg PUBLIC "-//W3C//DTD SVG 1.1//EN" "http://www.w3.org/Graphics/SVG/1.1/DTD/svg11.dtd"><svg t="1753493595649" class="icon" viewBox="0 0 1024 1024" version="1.1" xmlns="http://www.w3.org/2000/svg" p-id="13607" xmlns:xlink="http://www.w3.org/1999/xlink" width="81" height="81"><path d="M523.572656 0.162758A420.660909 420.660909 0 0 0 91.216569 420.701842c0 76.627776 29.847067 160.930513 88.688428 250.349889l240.847558 308.703951a116.464474 116.464474 0 0 0 182.737146 0l239.263835-306.754755 1.705547-2.31467c53.602896-83.693613 89.175727-159.224966 87.835655-255.832004A424.315652 424.315652 0 0 0 523.572656 0.162758z" fill="#1676ff" p-id="13608" data-spm-anchor-id="a313x.search_index.0.i4.4f2a3a8174f77Y" class="selected"></path><path d="M511.755654 228.096891a192.604951 192.604951 0 1 0 192.604951 192.604951 192.848601 192.848601 0 0 0-192.604951-192.604951z m111.347834 192.604951a111.347834 111.347834 0 1 1-111.347834-111.347834 111.469659 111.469659 0 0 1 111.347834 111.347834z" fill="#FFFFFF" p-id="13609"></path></svg>